<svg width="34" height="21" viewBox="0 0 34 21" fill="none" xmlns="http://www.w3.org/2000/svg">
<g filter="url(#filter0_i_413_1820)">
<rect width="34" height="21" rx="4" fill="#0D5057"/>
<path d="M10.3082 7.26768C10.5055 7.09628 10.7732 7 11.0523 7C11.3314 7 11.599 7.09628 11.7964 7.26768L17.0064 11.7932L22.2163 7.26768C22.4148 7.10114 22.6807 7.00899 22.9566 7.01107C23.2326 7.01316 23.4966 7.10931 23.6917 7.27882C23.8869 7.44832 23.9976 7.67763 24 7.91734C24.0024 8.15705 23.8963 8.388 23.7045 8.56042L17.7505 13.7323C17.5531 13.9037 17.2854 14 17.0064 14C16.7273 14 16.4596 13.9037 16.2622 13.7323L10.3082 8.56042C10.1108 8.38898 10 8.15648 10 7.91405C10 7.67163 10.1108 7.43913 10.3082 7.26768Z" fill="white"/>
</g>
<defs>
<filter id="filter0_i_413_1820" x="0" y="0" width="34" height="23" filterUnits="userSpaceOnUse" color-interpolation-filters="sRGB">
<feFlood flood-opacity="0" result="BackgroundImageFix"/>
<feBlend mode="normal" in="SourceGraphic" in2="BackgroundImageFix" result="shape"/>
<feColorMatrix in="SourceAlpha" type="matrix" values="0 0 0 0 0 0 0 0 0 0 0 0 0 0 0 0 0 0 127 0" result="hardAlpha"/>
<feOffset dy="2"/>
<feGaussianBlur stdDeviation="1"/>
<feComposite in2="hardAlpha" operator="arithmetic" k2="-1" k3="1"/>
<feColorMatrix type="matrix" values="0 0 0 0 0 0 0 0 0 0 0 0 0 0 0 0 0 0 0.5 0"/>
<feBlend mode="normal" in2="shape" result="effect1_innerShadow_413_1820"/>
</filter>
</defs>
</svg>
